<?xml version="1.0" standalone="no"?><!DOCTYPE svg PUBLIC "-//W3C//DTD SVG 1.1//EN" "http://www.w3.org/Graphics/SVG/1.1/DTD/svg11.dtd"><svg t="1661511303545" class="icon" viewBox="0 0 1024 1024" version="1.1" xmlns="http://www.w3.org/2000/svg" p-id="16835" xmlns:xlink="http://www.w3.org/1999/xlink" width="200" height="200"><path d="M60.19565 418.559608a31.99997 31.99997 0 0 0 31.99997-31.99997v-52.479951a31.99997 31.99997 0 0 0-63.99994 0v52.479951a31.99997 31.99997 0 0 0 31.99997 31.99997z" fill="#6B400D" p-id="16836"></path><path d="M993.954775 518.079514a31.99997 31.99997 0 0 0-14.719987-19.519981l-111.039895-63.99994a31.99997 31.99997 0 0 0-43.51996 11.519989L796.19496 495.359536V127.99988a95.99991 95.99991 0 0 0-95.99991-95.99991h-63.99994a31.99997 31.99997 0 0 0-31.99997-31.99997H220.1955a31.99997 31.99997 0 0 0-31.99997 31.99997H124.19559a95.99991 95.99991 0 0 0-95.99991 95.99991v69.439935a31.99997 31.99997 0 0 0 63.99994 0V127.99988a31.99997 31.99997 0 0 1 31.99997-31.99997h63.99994v15.999985a63.99994 63.99994 0 0 0 63.99994 63.99994h319.9997a63.99994 63.99994 0 0 0 63.99994-63.99994V95.99991h63.99994a31.99997 31.99997 0 0 1 31.99997 31.99997v478.079552l-155.519854 269.759747A29.759972 29.759972 0 0 0 572.19517 895.99916l9.919991 63.99994H124.19559a31.99997 31.99997 0 0 1-31.99997-31.99997V530.559503a31.99997 31.99997 0 0 0-63.99994 0V927.99913a95.99991 95.99991 0 0 0 95.99991 95.99991h495.999535a29.439972 29.439972 0 0 0 11.519989-2.239998l95.99991-36.159966a31.99997 31.99997 0 0 0 16.319985-13.759987l191.99982-332.799688 55.999947-95.99991a30.079972 30.079972 0 0 0 1.919999-24.959977zM252.19547 111.999895V63.99994h319.9997v47.999955z m611.839426 393.919631l55.359949 31.99997-23.999978 41.599961-49.279954-28.479974-6.079994-3.519996z m-170.879839 423.999602l-47.359956 18.239983-7.999992-50.239953 170.23984-295.039723 27.839974 15.999985 27.519974 15.999985z" fill="#6B400D" p-id="16837"></path><path d="M636.19511 563.199472V287.99973a31.99997 31.99997 0 0 0-31.99997-31.99997H220.1955a31.99997 31.99997 0 0 0-31.99997 31.99997v543.99949a31.99997 31.99997 0 0 0 31.99997 31.99997h215.359798a63.99994 63.99994 0 0 0 55.359948-31.99997l136.639872-236.799778a63.99994 63.99994 0 0 0 8.639992-31.99997z" fill="#FFC824" p-id="16838"></path></svg>