<?xml version="1.0" standalone="no"?><!DOCTYPE svg PUBLIC "-//W3C//DTD SVG 1.1//EN" "http://www.w3.org/Graphics/SVG/1.1/DTD/svg11.dtd"><svg t="1664811289754" class="icon" viewBox="0 0 1024 1024" version="1.1" xmlns="http://www.w3.org/2000/svg" p-id="5794" xmlns:xlink="http://www.w3.org/1999/xlink" width="200" height="200"><path d="M586.013727 89.146379C823.976467 54.362796 1017.617033 234.520241 1018.405939 491.416725s-191.13041 493.496568-429.09315 528.280151S157.781202 874.323014 157.064015 617.354812L588.093571 554.385768z" fill="#3FA9F5" p-id="5795"></path><path d="M621.873091 85.560443h24.025774c4.876874 0 9.753747 0 14.343746 0.358593h2.581874c5.737498 0 11.403278 0.717187 16.997339 1.219219l4.876873 0.573749 12.048747 1.434375 5.880935 0.932344c3.657655 0.57375 7.171873 1.219218 11.044684 1.936405 1.864687 0 3.801093 0.645469 5.66578 1.075781l12.479059 2.79703 3.657655 0.860625c5.378905 1.362656 10.757809 2.868749 16.064995 4.446561l4.087967 1.362656c3.94453 1.219218 7.88906 2.510155 11.833591 3.94453l5.235467 1.936406c3.585936 1.362656 7.171873 2.725312 10.757809 4.231405l4.876873 2.008124q6.813279 2.940468 13.339684 6.024373l1.721249 0.788906c4.159686 2.008124 8.391091 4.159686 12.479059 6.382967h0.430312l-65.622636-35.213895c-4.231405-2.294999-8.534529-4.51828-12.909371-6.598123l-1.434374-0.645469q-6.598123-3.155624-13.339684-6.024373l-4.876873-2.008124c-3.585936-1.506093-7.171873-2.868749-10.829528-4.231405l-5.235468-1.936406c-3.872811-1.362656-7.817341-2.725312-11.83359-3.94453l-4.016248-1.362656c-5.307186-1.577812-10.68609-3.083905-16.064996-4.446561h-0.645468l-3.012187-0.645469c-4.159686-1.004062-8.319372-1.936406-12.550777-2.79703-1.864687-0.430312-3.729374-0.717187-5.594061-1.075781-3.729374-0.717187-7.171873-1.362656-11.116403-1.936406L631.124807 53.287015l-11.977027-1.434375-4.876874-0.573749C608.892002 50.77686 603.297941 50.20311 597.560443 50.20311h-41.238269l-12.335621 0.860624-5.594061 0.502032c-5.952654 0.645469-11.83359 1.290937-17.857963 2.22328l1.721249 465.311108-430.8144 63.040762a492.27735 492.27735 0 0 0 6.024374 75.161227c1.506093 9.61031 3.37078 19.1489 5.450623 28.687491a428.806275 428.806275 0 0 0 31.914834 92.158566c3.94453 8.175935 8.104216 16.136714 12.550777 23.954055a386.27707 386.27707 0 0 0 29.261241 44.178737 362.466452 362.466452 0 0 0 116.829808 100.406219l65.550918 35.213896a370.212075 370.212075 0 0 1-152.474016-156.561984 417.474716 417.474716 0 0 1-26.751086-63.255918 447.74002 447.74002 0 0 1-14.343745-55.223421 482.810478 482.810478 0 0 1-8.391091-89.504972L588.093571 554.385768l-1.72125-465.239389c6.024373-0.932343 12.048746-1.577812 18.001401-2.223281l5.522342-0.502031z" fill="#3F59F5" p-id="5796"></path><path d="M494.859224 35.213896l1.721249 465.311108-431.029556 62.969043C64.546855 306.525844 256.681328 69.997479 494.859224 35.213896z" fill="#37DFD6" p-id="5797"></path><path d="M66.55498 531.650932c0.358594-5.235467 0.57375-10.470934 1.075781-15.706402 0-3.155624 0.717187-6.311248 1.004062-9.466872 0.502031-4.733436 1.004062-9.395153 1.577812-14.343746 0.430312-3.37078 1.075781-6.598123 1.577812-9.968903s1.290937-8.893122 2.079843-13.339683 1.362656-7.171873 2.079843-10.18406 1.649531-8.606247 2.581874-12.837652 1.721249-7.171873 2.510156-10.327497 2.008124-8.319372 3.155624-12.479059 2.008124-7.171873 3.012186-10.327496 2.294999-8.104216 3.585937-12.120465 2.294999-7.171873 3.442499-10.255779 2.653593-8.032498 4.087967-11.977027l2.366718-6.096092c1.792968-4.805155 3.657655-9.61031 5.594061-14.343746 1.004062-2.510155 2.079843-5.020311 3.155624-7.171873l5.307186-12.765933 3.585936-7.673904c2.008124-4.159686 4.016249-8.319372 6.096092-12.479059l3.729374-7.171873c3.155624-6.024373 6.382967-12.048746 9.753747-17.929682 3.37078-5.952654 7.171873-11.761871 10.470934-17.571088l3.155625-5.020311q4.374842-7.171873 9.036559-13.769996l2.653593-4.016248 3.872812-5.378905c4.374842-6.167811 8.821404-12.192184 13.339683-18.216557l5.235467-6.669842c4.733436-6.024373 9.61031-11.83359 14.343746-17.642807 1.219218-1.362656 2.366718-2.868749 3.585936-4.231405 6.167811-7.171873 12.479059-13.841715 18.933744-20.511556l5.020311-4.948592c5.09203-5.09203 10.255778-10.112341 15.562964-14.989214 2.581874-2.438437 5.163748-4.876874 7.817342-7.171873l4.589998-4.016249q6.669842-5.809217 13.55484-11.403278l2.151562-1.792968c5.307186-4.231405 10.614372-8.319372 16.064995-12.335621l4.51828-3.227343a420.988934 420.988934 0 0 1 11.546715-8.175935l7.602185-5.020311c3.514218-2.366718 7.171873-4.589999 10.614372-7.171873L329.906149 94.668721c3.729374-2.223281 7.171873-4.374842 11.259841-6.454685l7.171872-4.159687c4.159686-2.223281 8.391091-4.303124 12.622497-6.454685l6.454685-3.227343q8.964841-4.303124 18.07312-8.175935l4.733436-1.649531c4.805155-2.008124 9.61031-3.94453 14.343745-5.737498l5.66578-2.079843c5.450623-2.008124 10.972965-3.872811 16.495307-5.66578l2.797031-0.860624c6.311248-1.936406 12.765934-3.729374 19.220619-5.450624l5.307186-1.721249c4.948592-1.219218 9.897184-2.366718 14.917495-3.37078l5.737498-1.219219c6.598123-1.290937 13.196246-2.438437 19.866088-3.442499L429.021432 0C422.35159 1.004062 415.968623 2.151562 408.79675 3.442499l-5.737498 1.219218c-4.948592 1.004062-9.897184 2.151562-14.845777 3.370781l-5.378904 1.290937c-6.454686 1.721249-12.837652 3.514218-19.220619 5.522342-0.860625 0-1.721249 0.57375-2.581875 0.860624-5.594061 1.721249-11.044684 3.585936-16.495307 5.594061l-5.66578 2.079843c-4.876874 1.792968-9.682028 3.729374-14.343745 5.737499l-4.51828 1.864687c-5.737498 2.438437-11.331559 4.948592-16.92562 7.602185l-1.219218 0.57375-6.382967 3.227342c-4.231405 2.151562-8.46281 4.231405-12.622496 6.526405-2.510155 1.290937-4.948592 2.725312-7.171873 4.087967-3.801093 2.079843-7.602185 4.231405-11.331559 6.454686-2.581874 1.506093-5.09203 3.083905-7.602185 4.661717l-10.686091 7.171873-7.171873 5.092029-5.020311 3.299062-6.598123 4.805155-4.446561 3.227342c-5.450623 4.016249-10.829528 8.104216-16.064995 12.335622l-2.151562 1.792968q-7.171873 5.594061-13.554839 11.403278l-4.589999 4.016248-4.51828 3.944531-3.37078 3.299061c-5.235467 4.876874-10.470934 9.897184-15.562964 14.989214l-4.948592 4.948592c-6.884998 6.167811-13.267965 13.339683-19.364057 20.511557a11.403278 11.403278 0 0 1-0.932343 0.932343l-2.725312 3.299062c-4.948592 5.809217-9.753747 11.618434-14.343746 17.642807l-5.235467 6.669841c-4.589999 6.024373-9.03656 12.048746-13.339683 18.216557-0.932343 1.219218-1.864687 2.366718-2.725312 3.657656l-1.147499 1.721249c-0.932343 1.362656-1.792968 2.725312-2.725312 4.016249-3.083905 4.589999-6.024373 9.179997-8.964841 13.769996-1.075781 1.649531-2.151562 3.299061-3.155624 5.020311-3.585936 5.809217-7.171873 11.618434-10.542653 17.642807-3.083905 4.733436-5.737498 9.682028-8.319373 14.989214-0.57375 1.075781-1.075781 2.151562-1.64953 3.155624l-3.657656 7.171873c-1.864687 4.016249-4.231405 8.032498-6.16781 12.192183-1.219218 2.581874-2.438437 5.09203-3.585937 7.673904-1.936406 4.231405-3.801093 8.46281-5.59406 12.765934-1.075781 2.438437-2.151562 4.948592-3.155624 7.171873-1.936406 4.733436-3.801093 9.538591-5.594061 14.343745-0.788906 2.008124-1.649531 4.087968-2.366718 6.096092l-0.57375 1.506094c-1.219218 3.442499-2.366718 7.171873-3.514218 10.470934s-2.366718 7.171873-3.514217 10.255778-2.366718 8.104216-3.585937 12.120465-2.079843 7.171873-3.012186 10.327497-2.079843 8.319372-3.083906 12.479059-1.721249 7.171873-2.510155 10.327496-1.792968 8.534529-2.653593 12.837653-1.434375 7.171873-2.008125 10.184059-1.1475 9.179997-2.151561 13.626559-1.075781 6.669842-1.506094 9.968903c-0.645469 4.661717-1.075781 9.323435-1.577812 14.343745 0 3.155624-0.788906 6.311248-1.075781 9.466872-0.430312 5.235467-0.717187 10.470934-1.004062 15.706402 0 2.653593-0.430312 5.307186-0.502031 7.960779C0 512.358594 0 520.319372 0 528.280151l65.622636 35.213896c0-8.032498 0-15.921558 0.430313-23.882337 0.143437-2.653593 0.358594-5.307186 0.502031-7.960778z" fill="#4CA8A2" p-id="5798"></path><path d="M1025.1475 494.357193c0.932343 257.039922-191.13041 493.568287-429.021432 528.35187l-1.721249-465.382827z" fill="#F4F4F4" p-id="5799"></path><path d="M1015.322034 489.050007l-430.742681 62.969043 1.721249 465.382827 9.825466 5.307186-1.721249-465.382827 430.742681-62.969043-9.825466-5.307186z" fill="#DDDDDD" p-id="5800"></path></svg>