<?xml version="1.0" standalone="no"?><!DOCTYPE svg PUBLIC "-//W3C//DTD SVG 1.1//EN" "http://www.w3.org/Graphics/SVG/1.1/DTD/svg11.dtd"><svg t="1661511902936" class="icon" viewBox="0 0 1047 1024" version="1.1" xmlns="http://www.w3.org/2000/svg" p-id="50142" xmlns:xlink="http://www.w3.org/1999/xlink" width="204.4921875" height="200"><path d="M680.459907 11.525953c44.329674 0 80.276837 30.779535 80.276837 68.738977v173.198884c0 20.87293-11.097302 40.626605-30.124651 53.676651L448.23814 500.593116c-13.514419 9.251721-30.172279 14.526512-47.46121 15.026605l-2.67907 0.035721c17.384186 0 34.292093 4.822326 48.187535 13.752558l1.952745 1.309767L696.939163 701.082791l-143.610047 118.736372c-27.338419 65.488372-27.338419 123.927814 0 175.330232a133.23907 133.23907 0 0 0 17.122233 24.635535l-478.660465-0.011907c-43.63907 0-79.157581-29.838884-80.241117-67.000558l-0.023814-1.738418V777.835163c0-20.170419 10.35907-39.328744 28.314791-52.390698l1.809861-1.285953 282.350139-193.440745c13.573953-9.287442 30.303256-14.57414 47.663628-15.038511l2.274233-0.023814-2.262326-0.035721c-17.384186-0.464372-34.101581-5.739163-47.675535-15.026605L41.650605 307.140465c-19.051163-13.03814-30.124651-32.791814-30.124652-53.676651V80.26493C11.525953 42.305488 47.473116 11.525953 91.802791 11.525953h588.657116zM663.575814 840.97786a36.375814 36.375814 0 0 0-13.335814 24.492652l-10.025674 95.279628c-1.988465 19.003535 6.763163 29.81507 25.766697 31.815441l96.232186 9.525582a36.602047 36.602047 0 0 0 26.754977-7.953861l168.983814-137.061209L833.238326 703.106977 663.575814 840.97786z m116.164465 130.071814c-6.036837 4.893767-14.681302 3.988837-19.289302-2.024186l-77.812093-96.077395c-4.905674-6.036837-3.988837-14.669395 2.024186-19.289302 6.048744-4.88186 14.681302-3.97693 19.289302 2.036093l77.824 96.065488c4.643721 5.727256 3.726884 14.371721-2.024186 19.289302z m246.057674-241.592558l-53.307534-66.143256c-19.57507-24.171163-55.284093-27.92186-79.752931-8.382511l-36.280558 29.362604 124.725582 153.969117 35.982883-29.386419a55.819907 55.819907 0 0 0 8.632558-79.419535z" fill="#47D187" p-id="50143"></path></svg>