<?xml version="1.0" standalone="no"?><!DOCTYPE svg PUBLIC "-//W3C//DTD SVG 1.1//EN" "http://www.w3.org/Graphics/SVG/1.1/DTD/svg11.dtd"><svg t="1662981769370" class="icon" viewBox="0 0 1024 1024" version="1.1" xmlns="http://www.w3.org/2000/svg" p-id="4360" xmlns:xlink="http://www.w3.org/1999/xlink" width="200" height="200"><path d="M896 192H128c-35.3 0-64 28.7-64 64v512c0 35.3 28.7 64 64 64h576.6l191.6 127.7L896 832c35.3 0 64-28.7 64-64V256c0-35.3-28.7-64-64-64z" fill="#3D5AFE" p-id="4361"></path><path d="M640 512c0-125.4-51.5-238.7-134.5-320H128c-35.3 0-64 28.7-64 64v512c0 35.3 28.7 64 64 64h377.5c83-81.3 134.5-194.6 134.5-320z" fill="#536DFE" p-id="4362"></path><path d="M256 512m-64 0a64 64 0 1 0 128 0 64 64 0 1 0-128 0Z" fill="#FFFF8D" p-id="4363"></path><path d="M512 512m-64 0a64 64 0 1 0 128 0 64 64 0 1 0-128 0Z" fill="#FFFF00" p-id="4364"></path><path d="M768 512m-64 0a64 64 0 1 0 128 0 64 64 0 1 0-128 0Z" fill="#FFEA00" p-id="4365"></path></svg>