<?xml version="1.0" standalone="no"?><!DOCTYPE svg PUBLIC "-//W3C//DTD SVG 1.1//EN" "http://www.w3.org/Graphics/SVG/1.1/DTD/svg11.dtd"><svg t="1661511562599" class="icon" viewBox="0 0 1128 1024" version="1.1" xmlns="http://www.w3.org/2000/svg" p-id="27446" xmlns:xlink="http://www.w3.org/1999/xlink" width="220.3125" height="200"><path d="M919.198646 409.905897a204.529338 204.529338 0 0 1-166.13025-85.245476l-249.930465 116.044484a252.04852 252.04852 0 0 1 0.348856 141.037531l249.581609 115.894974a206.124108 206.124108 0 1 1-37.377438 96.882318l-259.847945-120.654368a256.658404 256.658404 0 1 1-0.87214-325.059114l260.720085-121.028142a202.486038 202.486038 0 0 1-1.345587-22.775319 204.952948 204.952948 0 1 1 204.853275 204.903112z m0 508.034129a100.669898 100.669898 0 1 0-100.694816-100.669898 100.669898 100.669898 0 0 0 100.669898 100.669898zM256.571436 359.969641a152.001579 152.001579 0 1 0 152.001578 152.001578 152.001579 152.001579 0 0 0-152.026497-152.001578zM919.198646 104.357805a100.669898 100.669898 0 1 0 100.694816 100.669898 100.669898 100.669898 0 0 0-100.719734-100.669898z" fill="#338CFA" p-id="27447"></path></svg>