<?xml version="1.0" standalone="no"?><!DOCTYPE svg PUBLIC "-//W3C//DTD SVG 1.1//EN" "http://www.w3.org/Graphics/SVG/1.1/DTD/svg11.dtd"><svg t="1661511714295" class="icon" viewBox="0 0 1041 1024" version="1.1" xmlns="http://www.w3.org/2000/svg" p-id="34071" xmlns:xlink="http://www.w3.org/1999/xlink" width="203.3203125" height="200"><path d="M275.452888 746.990881h34.237082v93.373861h-34.237082z" fill="#F39800" p-id="34072"></path><path d="M315.837082 730.261398v34.237082h-93.37386v-34.237082zM731.428571 183.635258h34.237082v93.373861H731.428571z" fill="#F39800" p-id="34073"></path><path d="M820.600608 259.050213v34.237082h-93.37386v-34.237082z" fill="#F39800" p-id="34074"></path><path d="M765.665653 683.18541V261.446809h-420.18237c-37.349544 0-68.474164 31.12462-68.474164 68.474164v435.74468h404.62006c46.68693 0 84.036474-37.349544 84.036474-82.480243z" fill="#F39800" p-id="34075"></path><path d="M241.215805 328.364742c0-57.580547 46.68693-104.267477 104.267478-104.267478h420.18237V82.480243c0-45.130699-37.349544-82.480243-82.480243-82.480243H82.480243C37.349544 0 0 37.349544 0 82.480243v599.148936c0 45.130699 37.349544 82.480243 82.480243 82.480243h158.735562v-435.74468z" fill="#F39800" p-id="34076"></path><path d="M762.553191 694.079027v-435.74468H357.933131c-45.130699 0-82.480243 37.349544-82.480243 82.480243V762.553191h420.18237c37.349544 0 66.917933-29.568389 66.917933-68.474164z" fill="#F39800" p-id="34077"></path><path d="M957.082067 258.334347H798.346505v435.74468c0 57.580547-46.68693 104.267477-104.267478 104.267478h-420.18237v143.173252c0 45.130699 37.349544 82.480243 82.480243 82.480243h599.148936c45.130699 0 82.480243-37.349544 82.480243-82.480243V340.81459c3.112462-45.130699-34.237082-82.480243-80.924012-82.480243z" fill="#F39800" p-id="34078"></path></svg>