<?xml version="1.0" standalone="no"?><!DOCTYPE svg PUBLIC "-//W3C//DTD SVG 1.1//EN" "http://www.w3.org/Graphics/SVG/1.1/DTD/svg11.dtd"><svg t="1662665257339" class="icon" viewBox="0 0 1030 1024" version="1.1" xmlns="http://www.w3.org/2000/svg" p-id="2168" xmlns:xlink="http://www.w3.org/1999/xlink" width="201.171875" height="200"><path d="M513.90451 1.343592C231.945783 1.343592 3.026344 230.25651 3.026344 512.215236s228.919439 510.871643 510.878166 510.871643c281.958726 0 510.871643-228.912917 510.871643-510.871643S795.863236 1.343592 513.90451 1.343592z m0 21.738803c269.957707 0 489.132841 219.175134 489.13284 489.132841s-219.175134 489.132841-489.13284 489.13284c-269.964229 0-489.132841-219.175134-489.132841-489.13284S243.94028 23.082395 513.90451 23.082395z" fill="#32B2FD" p-id="2169"></path><path d="M93.229656 355.112764c32.383185-87.092178 90.901197-161.518064 165.998879-213.735541a10.86614 10.86614 0 1 0-12.405401-17.844994c-78.711032 54.715516-140.033631 132.72214-173.969121 224.001631a10.872662 10.872662 0 0 0 20.375643 7.578904zM306.893452 111.113783a448.34242 448.34242 0 0 1 92.603516-35.58563 10.872662 10.872662 0 0 0-5.498293-21.034395 469.748586 469.748586 0 0 0-97.103898 37.314038 10.872662 10.872662 0 0 0 9.998675 19.305987z" fill="#32B2FD" p-id="2170"></path><path d="M496.059516 539.10665c190.783592 0 176.310624-96.725605 309.293656 0 48.956331 35.605197 170.760153-91.214268 170.760153-26.891414 0 255.099924-207.108892 462.208815-462.208815 462.208815-255.099924 0-462.208815-207.108892-462.208816-462.208815 0-105.348076 65.627312-14.812127 136.407236-82.415695 140.653248-134.346191 158.204739 109.307108 307.956586 109.307109z" fill="#32B2FD" fill-opacity=".3" p-id="2171"></path><path d="M165.242293 687.358369h209.626497v-58.648458H234.456866V337.072102H165.242293v350.286267zM425.136102 687.364892h58.133197V552.751287c12.751083-32.68321 33.87679-44.371159 51.415236-44.37116 9.163822 0 15.542624 1.206624 23.115006 3.626395l10.357402-51.147821c-6.77014-2.824153-13.944662-4.833019-26.304408-4.833019-23.115006 0-47.025732 16.103541-63.357554 45.506038h-1.597962l-3.978599-39.864255h-47.782318v225.697427zM752.105172 693.985019c44.932076 0 81.906955-17.968917 110.461554-51.552204l-36.511796-43.555872c-18.718981 20.362599-42.120968 34.568153-71.614777 34.568153-54.761172 0-90.333758-45.93651-90.333758-122.175593 0-75.29335 39.316382-120.760255 91.742573-120.760255 26.213096 0 46.334369 12.314089 63.65758 29.363363l36.505274-44.495082c-22.469299-23.649834-57.57228-44.932076-101.571669-44.932077-87.52265 0-160.950624 67.642701-160.950624 183.191644 0 116.96428 71.086471 180.347924 158.615643 180.347923z" fill="#32B2FD" p-id="2172"></path><path d="M743.534879 283.56321m-15.920917 0a15.920917 15.920917 0 1 0 31.841834 0 15.920917 15.920917 0 1 0-31.841834 0Z" fill="#32B2FD" p-id="2173"></path><path d="M662.254064 127.021656a31.026548 31.026548 0 0 0-31.013503 31.006981 31.026548 31.026548 0 0 0 31.013503 31.006981 31.020025 31.020025 0 0 0 31.006981-31.006981 31.020025 31.020025 0 0 0-31.006981-31.006981z m0 10.86614a20.140841 20.140841 0 1 1-20.140841 20.140841 20.153885 20.153885 0 0 1 20.140841-20.140841zM846.958879 247.677554a43.516739 43.516739 0 0 0-43.497172 43.497172 43.516739 43.516739 0 0 0 43.497172 43.497172 43.516739 43.516739 0 0 0 43.497172-43.497172 43.516739 43.516739 0 0 0-43.497172-43.497172z m0 10.872663a32.637554 32.637554 0 0 1 32.62451 32.624509 32.637554 32.637554 0 0 1-32.62451 32.62451 32.644076 32.644076 0 0 1-32.631032-32.62451 32.644076 32.644076 0 0 1 32.631032-32.624509zM759.938446 206.371873h-8.563771a3.678573 3.678573 0 0 0 0 7.357146h8.563771v8.563771a3.685096 3.685096 0 0 0 7.357146 0v-8.563771h8.563771a3.678573 3.678573 0 1 0 0-7.357146h-8.563771v-8.563771a3.678573 3.678573 0 1 0-7.357146 0v8.563771zM658.57549 248.460229H650.01172a3.678573 3.678573 0 1 0 0 7.357147h8.56377v8.56377a3.678573 3.678573 0 1 0 7.357147 0v-8.56377h8.563771a3.685096 3.685096 0 0 0 0-7.357147h-8.563771v-8.56377a3.685096 3.685096 0 0 0-7.357147 0v8.56377z" fill="#32B2FD" p-id="2174"></path></svg>