<?xml version="1.0" standalone="no"?><!DOCTYPE svg PUBLIC "-//W3C//DTD SVG 1.1//EN" "http://www.w3.org/Graphics/SVG/1.1/DTD/svg11.dtd"><svg t="1662584659350" class="icon" viewBox="0 0 1179 1024" version="1.1" xmlns="http://www.w3.org/2000/svg" p-id="6293" xmlns:xlink="http://www.w3.org/1999/xlink" width="230.2734375" height="200"><path d="M553.152708 896.20227h-55.164488V203.9615L1179.306421 0v802.496193h-55.164487V74.141072L553.152708 245.040655z" fill="#169DFA" p-id="6294"></path><path d="M425.42853 1024a127.908059 127.908059 0 0 1-127.760954-127.79773 127.908059 127.908059 0 0 1 127.760954-127.760954 127.908059 127.908059 0 0 1 127.724178 127.760954 127.908059 127.908059 0 0 1-127.724178 127.79773z m0-200.394196a72.670019 72.670019 0 0 0-72.596466 72.596466 72.670019 72.670019 0 0 0 72.596466 72.633242 72.670019 72.670019 0 0 0 72.55969-72.633242 72.670019 72.670019 0 0 0-72.55969-72.596466z" fill="#F6882D" p-id="6295"></path><path d="M1051.582244 931.250108a127.871283 127.871283 0 0 1-127.760954-127.724178 127.871283 127.871283 0 0 1 127.760954-127.760954 127.908059 127.908059 0 0 1 127.760954 127.760954 127.908059 127.908059 0 0 1-127.760954 127.724178z m0-200.320644a72.670019 72.670019 0 0 0-72.596466 72.596466 72.670019 72.670019 0 0 0 72.596466 72.55969 72.706795 72.706795 0 0 0 72.596466-72.55969 72.706795 72.706795 0 0 0-72.596466-72.596466z" fill="#F6882D" p-id="6296"></path><path d="M0 177.776756h384.717138v55.164488H0z" fill="#169DFA" p-id="6297"></path><path d="M164.757937 16.91711h55.164488v373.132596h-55.164488z" fill="#169DFA" p-id="6298"></path></svg>