<?xml version="1.0" standalone="no"?><!DOCTYPE svg PUBLIC "-//W3C//DTD SVG 1.1//EN" "http://www.w3.org/Graphics/SVG/1.1/DTD/svg11.dtd"><svg t="1661518986131" class="icon" viewBox="0 0 1024 1024" version="1.1" xmlns="http://www.w3.org/2000/svg" p-id="100500" xmlns:xlink="http://www.w3.org/1999/xlink" width="200" height="200"><path d="M356.848485 356.848485m-356.848485 0a356.848485 356.848485 0 1 0 713.69697 0 356.848485 356.848485 0 1 0-713.69697 0Z" fill="#8CF6FB" p-id="100501"></path><path d="M930.909091 1024H93.090909c-51.2 0-93.090909-41.890909-93.090909-93.090909V356.848485c0-51.2 41.890909-93.090909 93.090909-93.090909h141.187879c-1.551515-4.654545-1.551515-10.860606-1.551515-15.515152V93.090909c0-51.2 41.890909-93.090909 93.090909-93.090909h372.363636c51.2 0 93.090909 41.890909 93.090909 93.090909v155.151515c0 4.654545 0 10.860606-1.551515 15.515152H930.909091c51.2 0 93.090909 41.890909 93.090909 93.090909v574.060606c0 51.2-41.890909 93.090909-93.090909 93.090909zM713.69697 93.090909c0-9.309091-6.206061-15.515152-15.515152-15.515151H325.818182c-9.309091 0-15.515152 6.206061-15.515152 15.515151v155.151515c0 9.309091 6.206061 15.515152 15.515152 15.515152h372.363636c9.309091 0 15.515152-6.206061 15.515152-15.515152V93.090909z m232.727272 263.757576c0-9.309091-6.206061-15.515152-15.515151-15.515152H93.090909c-9.309091 0-15.515152 6.206061-15.515151 15.515152v574.060606c0 9.309091 6.206061 15.515152 15.515151 15.515151h837.818182c9.309091 0 15.515152-6.206061 15.515151-15.515151V356.848485z" fill="#3C2DCB" p-id="100502"></path><path d="M519.757576 822.30303C480.969697 822.30303 449.939394 791.272727 449.939394 752.484848c0-23.272727 12.412121-44.993939 31.030303-57.40606V536.824242c0-21.721212 17.066667-38.787879 38.787879-38.787878s38.787879 17.066667 38.787879 38.787878v158.254546c32.581818 21.721212 40.339394 65.163636 20.169697 96.193939-13.963636 18.618182-35.684848 31.030303-58.957576 31.030303z" fill="#D098FF" p-id="100503"></path></svg>