<?xml version="1.0" standalone="no"?><!DOCTYPE svg PUBLIC "-//W3C//DTD SVG 1.1//EN" "http://www.w3.org/Graphics/SVG/1.1/DTD/svg11.dtd"><svg t="1661511020197" class="icon" viewBox="0 0 1024 1024" version="1.1" xmlns="http://www.w3.org/2000/svg" p-id="13513" xmlns:xlink="http://www.w3.org/1999/xlink" width="200" height="200"><path d="M515.882667 106.666667l3.84 0.085333 3.84 0.128 3.84 0.170667 3.797333 0.213333 3.797333 0.298667 3.754667 0.298666 3.797333 0.384 3.712 0.341334 3.754667 0.469333 3.712 0.512 3.754667 0.512 3.626666 0.597333 3.754667 0.682667 3.669333 0.682667 3.626667 0.682666 3.584 0.810667 3.669333 0.853333 3.584 0.768 3.584 0.896 3.584 0.981334 3.584 0.981333 3.498667 1.024 3.541333 1.066667 3.498667 1.109333 3.413333 1.109333 3.541334 1.194667 3.413333 1.28 3.413333 1.28 3.413334 1.322667 3.328 1.365333 3.370666 1.408 3.370667 1.408 3.328 1.493333 3.285333 1.493334 3.285334 1.578666 3.242666 1.578667 3.2 1.621333 3.2 1.664 3.2 1.706667 3.157334 1.706667 3.114666 1.792 3.157334 1.877333 3.072 1.792 3.114666 1.962667 2.986667 1.92 3.072 1.962666 2.986667 2.005334 2.986666 2.005333 2.901334 2.005333 2.901333 2.176 2.944 2.133334 2.816 2.133333 2.858667 2.218667 2.816 2.261333 2.773333 2.218667 2.773333 2.346666 2.688 2.304 2.688 2.389334 2.688 2.389333 2.602667 2.389333 2.602667 2.474667 2.602666 2.432 2.56 2.56 2.56 2.56 2.432 2.56 2.474667 2.645333 2.389333 2.602667 2.389334 2.688 2.389333 2.688 2.304 2.688 2.304 2.773333 2.261333 2.773334 2.218667 2.816 2.261333 2.858666 2.133334 2.816 2.133333 2.901334 2.133333 2.944 2.048 2.901333 2.005334 2.986667 2.005333 2.986666 1.962667 3.072 1.92 2.986667 1.962666 3.114667 1.792 3.072 1.834667 3.114666 1.792 3.157334 1.706667 3.114666 1.749333 3.242667 1.621333 3.2 1.664 3.2 1.578667 3.2 1.536 3.285333 1.493333 3.285334 1.493334 3.413333 1.450666 3.328 1.408 3.370667 1.322667 3.328 1.365333 3.413333 1.28 3.413333 1.28 3.413334 1.152 3.498666 1.152 3.456 1.109334 3.498667 1.024 3.498667 1.066666 3.541333 0.981334 3.584 0.938666 3.584 0.896 3.584 0.853334 3.584 0.810666 3.626667 0.853334 3.584 0.64 3.669333 0.682666 3.669333 0.64 3.712 0.597334 3.669334 0.554666 3.754666 0.512 3.712 0.426667 3.754667 0.426667 3.712 0.341333 3.84 0.298667 3.712 0.298666 3.84 0.213334 3.754667 0.170666 3.84 0.128 3.84 0.085334 3.84v7.765333l-0.085334 3.84-0.128 3.84-0.170666 3.84-0.213334 3.797333-0.298666 3.797334-0.298667 3.712-0.384 3.84-0.384 3.712-0.426667 3.754666-0.512 3.712-0.554666 3.754667-0.597334 3.626667-0.64 3.754666-0.682666 3.669334-0.682667 3.626666-0.810667 3.584-0.853333 3.669334-0.810667 3.584-0.853333 3.584-0.981333 3.584-0.981334 3.584-1.066666 3.498666-1.024 3.541334-1.109334 3.498666-1.152 3.413334-1.194666 3.541333-1.28 3.413333-1.237334 3.413334-1.365333 3.413333-1.322667 3.328-1.408 3.370667-1.450666 3.370666-1.493334 3.328-1.493333 3.285334-1.536 3.285333-1.578667 3.242667-1.664 3.2-1.621333 3.2-1.706667 3.2-1.706666 3.157333-1.834667 3.114667-1.834667 3.157333-1.792 3.072-1.962666 3.114667-1.92 2.986666-1.962667 3.072-2.005333 2.986667-2.005334 2.986667-2.048 2.901333-2.133333 2.901333-2.133333 2.944-2.133334 2.816-2.261333 2.858667-2.218667 2.816-2.261333 2.773333-2.304 2.773334-2.304 2.688-2.389333 2.688-2.389334 2.688-2.389333 2.602666-2.474667 2.602667-2.474666 2.602667-2.517334 2.56-2.56 2.56-2.56 2.432-2.645333 2.474666-2.602667 2.389334-2.688 2.389333-2.688 2.389333-2.688 2.304-2.773333 2.304-2.773333 2.261334-2.816 2.261333-2.858667 2.218667-2.816 2.133333-2.944 2.133333-2.901333 2.133334-2.901334 2.048-2.986666 2.005333-2.986667 2.005333-3.072 1.962667-2.986667 1.92-3.114666 1.962667-3.072 1.792-3.157334 1.834666-3.114666 1.792-3.157334 1.706667-3.2 1.749333-3.2 1.621334-3.2 1.664-3.242666 1.578666-3.285334 1.536-3.285333 1.493334-3.328 1.493333-3.370667 1.450667-3.370666 1.408-3.370667 1.322666-3.328 1.365334-3.413333 1.28-3.456 1.28-3.541334 1.152-3.413333 1.152-3.498667 1.109333-3.541333 1.024-3.498667 1.066667-3.584 0.981333-3.584 0.938667-3.584 0.896-3.584 0.853333-3.669333 0.810667-3.584 0.853333-3.626667 0.64-3.669333 0.682667-3.754667 0.64-3.626666 0.64-3.754667 0.512-3.712 0.512-3.754667 0.426666-3.712 0.426667-3.84 0.341333-3.712 0.298667-3.84 0.298667-3.797333 0.213333-3.797333 0.170667-3.84 0.128-3.84 0.085333h-7.765334l-3.84-0.085333-3.84-0.128-3.84-0.170667-3.797333-0.213333-3.797333-0.298667-3.712-0.298667-3.84-0.384-3.712-0.384-3.754667-0.426666-3.712-0.512-3.754667-0.512-3.626666-0.64-3.754667-0.64-3.669333-0.682667-3.626667-0.682667-3.584-0.810666-3.669333-0.853334-3.584-0.810666-3.584-0.853334-3.584-0.981333-3.584-0.981333-3.498667-1.066667-3.541333-1.024-3.498667-1.109333-3.413333-1.152-3.541334-1.194667-3.413333-1.28-3.413333-1.237333-3.413334-1.365334-3.328-1.322666-3.370666-1.408-3.370667-1.450667-3.328-1.493333-3.285333-1.493334-3.285334-1.536-3.242666-1.578666-3.2-1.664-3.2-1.621334-3.2-1.706666-3.157334-1.706667-3.114666-1.834667-3.157334-1.834666-3.072-1.792-3.114666-1.962667-2.986667-1.92-3.072-1.962667-2.986667-2.005333-2.986666-2.005333-2.901334-2.048-2.901333-2.133334-2.944-2.133333-2.816-2.133333-2.858667-2.261334-2.816-2.218666-2.773333-2.261334-2.773333-2.304-2.688-2.304-2.688-2.389333-2.688-2.389333-2.602667-2.389334-2.602667-2.474666-2.602666-2.474667-2.56-2.517333-2.56-2.56-2.432-2.56-2.474667-2.645334-2.389333-2.602666-2.389334-2.688-2.389333-2.688-2.304-2.688-2.304-2.773334-2.261333-2.773333-2.218667-2.816-2.261333-2.858667-2.133334-2.816-2.133333-2.944-2.133333-2.901333-2.048-2.901333-2.005334-2.986667-2.005333-2.986667-1.962667-3.072-1.92-2.986666-1.962666-3.114667-1.792-3.072-1.834667-3.157333-1.792-3.114667-1.706667-3.157333-1.749333-3.2-1.621333-3.2-1.664-3.2-1.578667-3.242667-1.536-3.285333-1.493333-3.285334-1.493334-3.328-1.450666-3.370666-1.408-3.370667-1.322667-3.370667-1.365333-3.328-1.28-3.413333-1.28-3.456-1.152-3.541333-1.152-3.413334-1.109334-3.498666-1.024-3.541334-1.066666-3.498666-0.981334-3.584-0.938666-3.584-0.896-3.584-0.853334-3.584-0.810666-3.669334-0.853334-3.584-0.64-3.626666-0.682666-3.669334-0.64-3.754666-0.597334-3.626667-0.554666-3.754667-0.512-3.712-0.426667-3.754666-0.426667-3.712-0.341333-3.84-0.298667-3.712-0.298666-3.84-0.213334-3.797334-0.170666-3.797333-0.128-3.84L213.333333 409.173333v-7.765333l0.085334-3.84 0.128-3.84 0.170666-3.84 0.213334-3.797333 0.298666-3.797334 0.298667-3.754666 0.384-3.797334 0.384-3.712 0.426667-3.754666 0.512-3.712 0.554666-3.754667 0.597334-3.669333 0.64-3.712 0.682666-3.669334 0.682667-3.669333 0.810667-3.584 0.853333-3.626667 0.810667-3.584 0.853333-3.584 0.981333-3.584 0.981334-3.584 1.066666-3.541333 1.024-3.498667 1.109334-3.498666 1.152-3.413334 1.194666-3.541333 1.28-3.413333 1.237334-3.413334 1.365333-3.413333 1.322667-3.328 1.408-3.370667 1.408-3.370666 1.493333-3.370667 1.536-3.285333 1.536-3.285334 1.578667-3.2 1.664-3.2 1.621333-3.2 1.706667-3.242666 1.706666-3.114667 1.834667-3.157333 1.834667-3.114667 1.792-3.072 1.962666-3.114667 1.92-2.986666 1.962667-3.072 2.005333-2.986667 2.005334-2.986667 2.048-2.901333 2.133333-2.944 2.133333-2.901333 2.133334-2.816 2.218666-2.858667 2.261334-2.816 2.261333-2.773333 2.304-2.773334 2.304-2.688 2.389333-2.688 2.389334-2.688 2.389333-2.602666 2.474667-2.602667 2.474666-2.645333 2.517334-2.517334 2.56-2.56 2.56-2.432 2.645333-2.474666 2.602667-2.389334 2.688-2.389333 2.688-2.389333 2.688-2.304 2.773333-2.346667 2.773333-2.218667 2.816-2.261333 2.858667-2.218667 2.816-2.133333 2.944-2.133333 2.901333-2.133334 2.901334-2.048 2.986666-2.005333 2.986667-2.005333 3.072-1.962667 2.986667-1.92 3.114666-1.962667 3.072-1.792 3.157334-1.877333 3.114666-1.792 3.157334-1.706667 3.2-1.706666 3.2-1.664 3.2-1.621334 3.242666-1.578666 3.285334-1.578667 3.285333-1.493333 3.328-1.493334 3.370667-1.408 3.370666-1.408 3.370667-1.365333 3.328-1.322667 3.413333-1.28 3.456-1.28 3.541334-1.194666 3.413333-1.109334 3.498667-1.109333 3.541333-1.066667 3.498667-1.024 3.584-0.981333 3.584-0.981333 3.584-0.853334 3.584-0.853333 3.669333-0.810667 3.584-0.853333 3.626667-0.64 3.669333-0.682667 3.754667-0.682666 3.626666-0.597334 3.754667-0.512 3.712-0.512 3.754667-0.426666 3.712-0.426667 3.84-0.341333 3.712-0.298667 3.84-0.298667 3.797333-0.213333 3.797333-0.170667 3.84-0.128 3.84-0.085333h7.765334z m-7.168 42.709333l-3.370667 0.085333-3.285333 0.042667-3.285334 0.170667-3.285333 0.128-3.2 0.256-3.285333 0.298666-3.2 0.298667-3.2 0.341333-3.242667 0.426667-3.2 0.426667-3.114667 0.426666-3.242666 0.512-3.114667 0.554667-3.157333 0.597333-3.114667 0.597334-3.157333 0.64-3.029334 0.682666-3.157333 0.768-3.072 0.725334-3.029333 0.853333-2.986667 0.853333-3.072 0.853334-2.986667 0.938666-2.986666 0.896-2.986667 1.066667-2.986667 0.981333-2.944 1.024-2.901333 1.109334-2.901333 1.152-2.901334 1.194666-2.901333 1.194667L409.557333 170.666667l-2.816 1.28-2.858666 1.322666-2.773334 1.28-2.816 1.408-2.773333 1.322667-2.773333 1.493333-2.688 1.450667-2.688 1.493333-2.688 1.536-2.688 1.493334-2.688 1.664-2.602667 1.578666-2.602667 1.706667-2.56 1.621333-2.602666 1.706667-2.56 1.749333-2.517334 1.792-2.474666 1.792-2.432 1.877334-2.474667 1.834666-2.474667 1.877334-2.389333 1.962666-2.389333 1.92-2.389334 1.962667-2.304 2.005333-2.304 2.005334-2.346666 2.133333-2.218667 1.962667-2.261333 2.176-2.218667 2.133333-2.176 2.133333-2.133333 2.133334-2.133334 2.261333-2.133333 2.261333-2.133333 2.218667-2.005334 2.304-2.005333 2.346667-2.005333 2.304-1.962667 2.389333-1.92 2.389333-1.962667 2.389334-1.834666 2.474666-1.877334 2.432-1.877333 2.474667-1.792 2.474667-1.792 2.56-1.706667 2.517333-1.706666 2.602667-1.664 2.56-1.706667 2.602666-1.578667 2.602667-1.621333 2.688-1.493333 2.688-1.578667 2.688-1.493333 2.688-1.408 2.688-1.493334 2.773333-1.365333 2.773334-1.408 2.816-1.28 2.773333-1.322667 2.816-1.28 2.858667-1.194666 2.816-1.194667 2.944-1.194667 2.901333-1.109333 2.901333-1.152 2.901334-1.024 2.944-0.981333 2.986666-1.024 2.986667-0.896 2.986667-0.981334 2.986666-0.853333 3.029334-0.853333 2.986666-0.853334 3.072-0.725333 3.072-0.768 3.114667-0.64 3.072-0.682667 3.157333-0.597333 3.114667-0.597333 3.157333-0.512 3.114667-0.554667 3.2-0.426667 3.157333-0.426666 3.2-0.426667 3.2-0.341333 3.242667-0.298667 3.2-0.298667 3.285333-0.213333 3.2-0.170667 3.285334-0.128 3.285333-0.085333 3.285333L256 402.048l-0.085333 3.285333 0.085333 3.285334 0.085333 3.370666 0.085334 3.285334 0.128 3.285333 0.170666 3.285333 0.213334 3.2 0.298666 3.285334 0.298667 3.2 0.384 3.242666 0.341333 3.2 0.426667 3.2 0.469333 3.157334 0.554667 3.2 0.512 3.114666 0.597333 3.157334 0.597334 3.114666 0.682666 3.157334 0.64 3.072 0.768 3.114666 0.725334 3.072 0.853333 3.072 0.853333 2.986667 0.853334 3.029333 0.981333 2.986667 0.853333 2.986667 1.066667 2.986666 0.981333 2.986667 1.024 2.944 1.152 2.901333 1.109334 2.901334 1.194666 2.901333 1.194667 2.944 1.194667 2.816 1.28 2.858667 1.322666 2.816 1.28 2.773333 1.408 2.816 1.365334 2.773333 1.493333 2.773334 1.408 2.688 1.493333 2.688 1.578667 2.688 1.493333 2.688 1.621334 2.688 1.578666 2.602666 1.706667 2.602667 1.664 2.56 1.706667 2.602667 1.706666 2.56 1.792 2.517333 1.792 2.474667 1.877334 2.474666 1.877333 2.432 1.834667 2.474667 1.962666 2.389333 1.92 2.389334 1.962667 2.389333 2.005333 2.304 2.005334 2.346667 2.048 2.304 2.090666 2.218666 2.133334 2.261334 2.133333 2.218666 2.133333 2.176 2.133334 2.133334 2.261333 2.133333 2.261333 2.133333 2.218667 2.048 2.346667 2.090667 2.304 2.005333 2.304 2.005334 2.389333 1.962666 2.389333 1.92 2.389334 1.962667 2.474666 1.877333 2.474667 1.834667 2.432 1.877333 2.474667 1.792 2.56 1.792 2.517333 1.706667 2.602667 1.706667 2.56 1.664 2.602666 1.706666 2.602667 1.578667 2.688 1.664 2.688 1.493333 2.688 1.536 2.688 1.493334 2.688 1.450666 2.773333 1.493334 2.773334 1.322666 2.816 1.408 2.773333 1.28 2.858667 1.365334 2.816 1.28 2.858666 1.152 2.901334 1.194666 2.901333 1.194667 2.901333 1.152 2.944 1.109333 2.901334 1.024 2.986666 0.981334 2.986667 1.066666 2.986667 0.853334 2.986666 0.981333 3.072 0.853333 2.986667 0.853334 3.029333 0.853333 3.072 0.725333 3.157334 0.768 3.029333 0.682667 3.157333 0.64 3.114667 0.597333 3.157333 0.597334 3.114667 0.554666 3.242667 0.512 3.114666 0.426667 3.2 0.426667 3.242667 0.426666 3.2 0.341334 3.2 0.298666 3.285333 0.298667 3.2 0.256 3.285334 0.128 3.285333 0.170667 3.285333 0.042666 3.370667 0.085334 3.285333 0.085333 3.285334-0.085333 3.370666-0.085334 3.285334-0.042666 3.285333-0.170667 3.285333-0.128 3.2-0.256 3.285334-0.298667 3.2-0.298666 3.242666-0.341334 3.2-0.426666 3.2-0.426667 3.157334-0.426667 3.2-0.512 3.114666-0.554666 3.157334-0.597334 3.114666-0.597333 3.157334-0.64 3.072-0.682667 3.114666-0.768 3.072-0.725333 3.072-0.853333 2.986667-0.853334 3.029333-0.853333 2.986667-0.938667 2.986667-0.896 2.986666-1.066666 2.986667-0.981334 2.944-1.024 2.901333-1.109333 2.901334-1.152 2.901333-1.194667 2.944-1.194666L614.4 640l2.858667-1.28 2.816-1.322667 2.773333-1.28 2.816-1.408 2.773333-1.322666 2.773334-1.493334 2.688-1.450666 2.688-1.493334 2.688-1.536 2.688-1.493333 2.688-1.664 2.602666-1.578667 2.602667-1.706666 2.56-1.621334 2.602667-1.706666 2.56-1.749334 2.517333-1.792 2.474667-1.792 2.474666-1.877333 2.432-1.834667 2.474667-1.877333 2.389333-1.962667 2.389334-1.92 2.389333-1.962666 2.304-2.005334 2.346667-2.005333 2.304-2.133333 2.218666-1.962667 2.261334-2.176 2.218666-2.133333 2.176-2.133334 2.133334-2.133333 2.133333-2.261333 2.133333-2.261334 2.048-2.218666 2.090667-2.304 2.005333-2.346667 2.005334-2.304 1.962666-2.389333 1.92-2.389334 1.962667-2.389333 1.877333-2.474667 1.834667-2.432 1.877333-2.474666 1.792-2.474667 1.792-2.56 1.706667-2.517333 1.706667-2.602667 1.664-2.56 1.706666-2.602667 1.578667-2.602666 1.664-2.688 1.493333-2.688 1.536-2.688 1.493334-2.688 1.450666-2.688 1.493334-2.773334 1.322666-2.773333 1.408-2.816 1.28-2.773333 1.365334-2.816 1.28-2.858667 1.152-2.816 1.194666-2.944 1.194667-2.901333 1.152-2.901334 1.109333-2.901333 1.024-2.944 0.981334-2.986667 1.066666-2.986666 0.853334-2.986667 0.981333-2.986667 0.853333-3.029333 0.853334-2.986667 0.853333-3.072 0.725333-3.072 0.768-3.114666 0.682667-3.072 0.64-3.157334 0.597333-3.114666 0.597334-3.157334 0.554666-3.114666 0.512-3.2 0.426667-3.157334 0.426667-3.2 0.426666-3.2 0.341334-3.242666 0.298666-3.2 0.298667-3.285334 0.256-3.2 0.128-3.285333 0.170667-3.285333 0.042666-3.285334 0.085334-3.370666 0.085333-3.285334-0.085333-3.285333-0.085334-3.370667-0.042666-3.285333-0.170667-3.285333-0.128-3.285334-0.256-3.2-0.298667-3.285333-0.298666-3.2-0.341334-3.2-0.426666-3.242667-0.426667-3.2-0.426667-3.157333-0.512-3.2-0.554666-3.114667-0.597334-3.157333-0.597333-3.114667-0.64-3.157333-0.682667-3.029333-0.768-3.157334L759.978667 341.333333l-0.853334-3.029333-0.853333-2.986667-0.853333-3.072-0.938667-2.986666-0.896-2.986667-1.066667-2.986667-0.981333-2.986666-1.024-2.901334-1.109333-2.944-1.152-2.901333-1.194667-2.901333-1.194667-2.901334-1.194666-2.858666-1.28-2.816-1.322667-2.858667-1.28-2.773333-1.408-2.816-1.322667-2.773334-1.493333-2.773333-1.450667-2.688-1.493333-2.688-1.536-2.688-1.493333-2.688-1.664-2.688-1.578667-2.602667-1.706667-2.602666-1.621333-2.56-1.706667-2.602667-1.749333-2.56-1.792-2.517333-1.792-2.474667-1.877333-2.432-1.834667-2.474667-1.877333-2.474666-1.962667-2.389334-1.92-2.389333-1.962667-2.389333-2.005333-2.304-2.005333-2.304-2.133334-2.346667-1.962666-2.218667-2.176-2.261333-2.133334-2.218667-2.133333-2.176-2.133333-2.133333-2.261334-2.133333-2.261333-2.133334-2.218667-2.048-2.304-2.090666-2.346666-2.005334-2.304-2.005333-2.389334-1.962667-2.389333-1.92-2.389333-1.962666-2.474667-1.834667-2.432-1.877333-2.474667-1.877334-2.474666-1.792-2.56-1.792-2.517334-1.706666-2.602666-1.706667-2.56-1.664-2.602667-1.706667-2.602667-1.578666-2.688-1.621334-2.688-1.493333-2.688-1.578667-2.688-1.493333-2.688-1.408-2.773333-1.493333-2.773333-1.365334-2.816-1.408-2.773334-1.28-2.816-1.322666L614.4 170.666667l-2.816-1.194667-2.944-1.194667-2.901333-1.194666-2.901334-1.109334-2.901333-1.152-2.944-1.024-2.986667-0.981333-2.986666-1.024-2.986667-0.896-2.986667-0.981333-3.029333-0.853334-2.986667-0.853333-3.072-0.853333-3.072-0.725334-3.114666-0.768-3.072-0.64-3.157334-0.682666-3.114666-0.597334-3.157334-0.597333-3.114666-0.512-3.2-0.554667-3.157334-0.426666-3.2-0.426667-3.2-0.426667-3.242666-0.341333-3.2-0.298667-3.285334-0.298666-3.2-0.213334-3.285333-0.170666-3.285333-0.128-3.285334-0.085334-3.370666-0.085333L512 149.290667l-3.285333 0.085333z" fill="#0400FF" p-id="13514"></path><path d="M558.933333 661.376l4.181334 0.170667 4.224 0.256 4.224 0.341333 4.138666 0.469333 4.181334 0.597334 4.096 0.64 4.138666 0.768 4.096 0.896 4.053334 0.938666 4.010666 1.066667 4.010667 1.194667 3.968 1.28 3.968 1.322666 3.882667 1.450667 3.84 1.536 3.84 1.664 3.84 1.706667 3.712 1.834666 3.712 1.92 3.626666 2.005334 3.626667 2.133333 3.541333 2.133333 3.498667 2.304 3.456 2.346667 3.413333 2.474667 3.328 2.56 3.285334 2.602666 3.242666 2.730667 3.157334 2.773333 3.072 2.858667 3.029333 2.986667 2.986667 2.986666 2.858666 3.114667 2.816 3.157333 2.688 3.242667 2.645334 3.285333 2.517333 3.328 2.432 3.413334 2.389333 3.456 2.261334 3.498666 2.176 3.541334 2.133333 3.626666 2.005333 3.626667 1.92 3.712 1.792 3.754667 1.706667 3.754666 1.706667 3.84 1.536 3.882667 1.450666 3.882667 1.365334 3.925333 1.237333 3.968 1.152 4.010667 1.066667 4.053333 0.981333 4.053333 0.853333 4.096 0.810667 4.096 0.64 4.138667 0.554667 4.181333 0.512 4.138667 0.341333 4.224 0.256 4.181333 0.170667 4.266667 0.042666 4.224v2.176l-0.085333 2.218667-0.170667 2.176-0.213333 2.133333-0.213333 2.133333-0.298667 2.133334-0.341333 2.133333-0.426667 2.090667-0.426667 2.048-0.512 2.090666-0.554666 2.005334-0.597334 2.005333-0.64 2.005333-0.682666 1.962667-0.768 1.962667-0.768 1.92-0.853334 1.92-0.853333 1.877333-0.938667 1.834667-0.938666 1.834666-1.024 1.792-1.024 1.792-1.109334 1.749334-1.152 1.706666-1.152 1.706667-1.237333 1.621333-1.237333 1.664-1.28 1.578667-1.28 1.578667-1.365334 1.536-1.450666 1.493333-1.408 1.450667-1.450667 1.408-1.493333 1.408-1.536 1.365333-1.578667 1.322667-1.578667 1.28-1.621333 1.28-1.706667 1.194666-1.664 1.152-1.706666 1.152-1.749334 1.066667-1.749333 1.066667-1.834667 0.981333-1.792 0.981333-1.877333 0.938667-1.877333 0.853333-1.877334 0.853334-1.962666 0.768-1.962667 0.725333-1.962667 0.725333-1.962666 0.64-2.048 0.597334-2.005334 0.554666-2.048 0.512-2.090666 0.426667-2.133334 0.426667-2.090666 0.341333-2.090667 0.298667-2.133333 0.213333-2.176 0.213333-2.133334 0.128-2.218666 0.085334L640 917.333333H381.781333l-2.176-0.128-2.133333-0.128-2.176-0.213333-2.176-0.213333-2.133333-0.298667-2.090667-0.341333-2.133333-0.426667-2.048-0.426667-2.048-0.512-2.048-0.554666-2.005334-0.597334-1.962666-0.64-2.005334-0.725333-1.92-0.725333-1.962666-0.768-1.877334-0.853334-1.877333-0.853333-1.877333-0.938667-1.792-0.981333-1.834667-0.981333-1.706667-1.066667-1.792-1.066667-1.706666-1.152-1.706667-1.152-1.664-1.237333-1.621333-1.237333-1.578667-1.28-1.578667-1.28-1.536-1.408-1.493333-1.408-1.450667-1.408-1.450666-1.450667-1.408-1.493333-1.365334-1.536-1.28-1.578667-1.28-1.578667-1.28-1.664-1.194666-1.621333-1.152-1.706667-1.152-1.706666-1.109334-1.749334-1.024-1.792-1.024-1.792-0.938666-1.834666-0.938667-1.834667-0.853333-1.877333-0.853334-1.92-0.768-1.92-0.768-1.962667-0.682666-1.962667-0.64-2.005333-0.597334-2.005333L301.354667 853.333333l-0.512-2.090666-0.426667-2.048-0.426667-2.090667-0.341333-2.133333-0.298667-2.133334-0.213333-2.133333-0.213333-2.133333-0.170667-2.176-0.042667-2.218667L298.666667 832l0.042666-4.266667 0.170667-4.224 0.256-4.181333 0.341333-4.224 0.512-4.138667 0.554667-4.181333 0.64-4.138667 0.768-4.096 0.896-4.096 0.981333-4.053333 1.066667-4.053333 1.152-4.010667 1.28-3.968 1.322667-3.925333 1.450666-3.882667 1.536-3.84 1.706667-3.84 1.706667-3.797333 1.792-3.754667 1.92-3.712 2.005333-3.626667 2.133333-3.626666 2.133334-3.541334 2.304-3.498666 2.346666-3.456 2.474667-3.413334 2.56-3.328 2.56-3.285333 2.730667-3.242667 2.816-3.157333 2.858666-3.114667 2.986667-2.986666 2.986667-2.986667 3.114666-2.858667 3.157334-2.773333 3.242666-2.730667 3.285334-2.602666 3.328-2.56 3.413333-2.432 3.413333-2.389334 3.541334-2.261333 3.541333-2.176 3.626667-2.133333 3.626666-2.005334 3.712-1.877333 3.754667-1.834667 3.754667-1.749333 3.84-1.621333 3.882666-1.578667 3.882667-1.450667 3.968-1.322666 3.968-1.28 4.010667-1.152 4.010666-1.066667 4.053334-0.981333 4.096-0.853334 4.096-0.768 4.138666-0.682666 4.181334-0.554667 4.138666-0.469333 4.266667-0.384 4.181333-0.256 4.224-0.170667L469.333333 661.333333h85.333334l4.266666 0.042667z m-89.344 42.624l-3.413333 0.042667-3.2 0.128-3.157333 0.170666-3.114667 0.298667-3.157333 0.341333-3.114667 0.426667-3.114667 0.469333-3.072 0.597334-3.072 0.682666-3.029333 0.682667-2.986667 0.853333-3.072 0.853334-2.986666 0.938666-2.901334 0.981334-2.944 1.109333-2.901333 1.152-2.858667 1.28-2.858666 1.28-2.816 1.365333-2.773334 1.450667-2.730666 1.493333-2.688 1.578667-2.688 1.621333-2.602667 1.706667-2.602667 1.749333-2.56 1.834667-2.517333 1.92-2.432 1.962667-2.432 2.048-2.346667 2.090666-2.346666 2.133334-2.261334 2.218666-2.218666 2.304-2.133334 2.304-2.133333 2.389334-2.048 2.432-1.962667 2.432-1.877333 2.517333-1.834667 2.56-1.792 2.56-1.706666 2.645333-1.621334 2.688-1.578666 2.688-1.493334 2.730667-1.450666 2.773333-1.408 2.816-1.28 2.816-1.237334 2.901334-1.152 2.901333-1.066666 2.901333-1.024 2.986667-0.938667 2.986667-0.853333 2.986666-0.853334 3.029334-0.682666 3.029333-0.682667 3.072-0.554667 3.072-0.512 3.114667-0.426666 3.114666-0.341334 3.114667-0.298666 3.157333-0.170667 3.157334-0.128 3.157333L341.333333 832v1.109333l0.042667 1.109334 0.085333 1.109333 0.085334 1.066667 0.128 1.066666 0.170666 1.066667 0.170667 1.066667 0.213333 1.024 0.213334 1.024 0.213333 1.024 0.298667 1.024 0.298666 0.981333 0.298667 1.024 0.384 0.981333 0.341333 0.938667 0.426667 0.981333 0.426667 0.938667 0.426666 0.938667 0.426667 0.896 0.469333 0.938666 0.512 0.896 0.512 0.896 0.554667 0.853334 0.554667 0.853333 0.597333 0.853333 0.597333 0.853334 0.64 0.810666 0.64 0.768 0.682667 0.810667 0.64 0.768 0.725333 0.768 0.725334 0.725333 0.725333 0.725334 0.768 0.682666 0.768 0.682667 0.768 0.682667 0.853333 0.64 0.810667 0.64 0.810667 0.597333 0.853333 0.554667 0.853333 0.597333 0.853334 0.554667 0.896 0.512 0.853333 0.512 0.981333 0.469333 0.853334 0.469333 0.981333 0.426667 0.938667 0.426667 0.981333 0.384 0.938667 0.341333 0.981333 0.341333 0.981333 0.341334 1.024 0.298666 0.981334 0.256 1.024 0.256 1.066666 0.213334 1.024 0.213333 1.024 0.170667 1.066667 0.170666 1.066667 0.085334 1.109333 0.128 1.066667 0.042666 1.152 0.042667 1.365333 0.042667H641.109333l1.152-0.085334 1.066667-0.042666 1.109333-0.128 1.066667-0.085334 1.066667-0.170666 1.024-0.170667 1.024-0.213333 1.066666-0.213334 1.024-0.256 0.981334-0.256 0.981333-0.298666 1.024-0.341334 0.981333-0.341333 0.938667-0.341333 0.981333-0.426667 0.938667-0.384 0.938667-0.426667 0.896-0.469333 0.938666-0.469333 0.853334-0.512 0.938666-0.512 0.853334-0.554667 0.853333-0.597333 0.853333-0.554667 0.853334-0.597333 0.810666-0.64 0.810667-0.64 0.768-0.682667 0.768-0.682667 0.768-0.682666 0.725333-0.725334 0.725334-0.725333 0.725333-0.768 0.64-0.768 0.682667-0.810667 0.64-0.768 0.64-0.853333 0.597333-0.810667 0.597333-0.853333 0.554667-0.853333 0.554667-0.853334 0.512-0.896 0.512-0.896 0.469333-0.938666 0.426667-0.896 0.426666-0.938667 0.426667-0.938667 0.426667-0.981333 0.341333-0.938667 0.384-0.981333 0.298667-0.981333 0.298666-1.024 0.298667-1.024 0.213333-0.981334 0.213334-1.066666 0.213333-1.024 0.170667-1.066667 0.170666-1.066667 0.128-1.066666 0.085334-1.066667 0.085333-1.109333v-1.109334L682.666667 832l-0.042667-3.2-0.128-3.157333-0.170667-3.157334-0.298666-3.157333-0.341334-3.114667-0.426666-3.114666-0.512-3.114667-0.554667-3.072-0.682667-3.072-0.725333-3.029333-0.768-3.029334-0.896-2.986666-0.938667-2.986667-1.024-2.986667-1.066666-2.901333-1.152-2.901333-1.28-2.901334-1.28-2.816-1.365334-2.816-1.450666-2.773333-1.493334-2.730667-1.578666-2.730666-1.621334-2.645334-1.706666-2.645333-1.792-2.56-1.834667-2.56-1.877333-2.517333-1.962667-2.432-2.048-2.432-2.133333-2.389334-2.133334-2.304-2.218666-2.304-2.261334-2.218666-2.346666-2.133334-2.346667-2.090666-2.432-2.048-2.432-1.962667-2.517333-1.92-2.56-1.834667-2.56-1.749333-2.645334-1.706667-2.688-1.664-2.688-1.536-2.730666-1.536-2.773334-1.408-2.816-1.408-2.858666-1.28-2.858667-1.237333-2.901333-1.152-2.944-1.109333-2.901334-0.981334-2.986666-0.981333-3.029334-0.853333-2.986666-0.810667-3.072-0.725333-3.072-0.64-3.072-0.597334-3.114667-0.469333-3.114667-0.426667-3.157333-0.341333-3.114667-0.298667-3.157333-0.170666-3.2-0.128-3.413333-0.042667h-84.821334z" fill="#0400FF" p-id="13515"></path><path d="M640 341.333333a21.333333 21.333333 0 0 0-42.666667 0v85.333334a21.333333 21.333333 0 0 0 42.666667 0V341.333333z m-213.333333 0a21.333333 21.333333 0 0 0-42.666667 0v85.333334a21.333333 21.333333 0 0 0 42.666667 0V341.333333z" fill="#0400FF" p-id="13516"></path><path d="M619.776 320.042667l1.066667 0.085333 1.066666 0.128 1.066667 0.170667 1.024 0.256 1.024 0.256 0.981333 0.341333 0.938667 0.384 0.981333 0.426667 0.896 0.469333 0.896 0.512 0.853334 0.554667 0.853333 0.597333 0.853333 0.64 0.725334 0.682667 0.725333 0.725333 0.725333 0.725333 0.682667 0.768 0.64 0.810667 0.554667 0.853333 0.554666 0.853334 0.554667 0.896 0.469333 0.896 0.426667 0.938666 0.426667 0.981334 0.256 0.981333 0.298666 1.024 0.256 1.024 0.170667 1.066667 0.128 1.066666 0.085333 1.066667L640 341.333333v86.442667l-0.128 1.066667-0.128 1.066666-0.170667 1.066667-0.256 1.024-0.298666 1.024-0.298667 0.981333-0.384 0.981334-0.426667 0.938666-0.426666 0.896-0.597334 0.896-0.554666 0.853334-0.554667 0.853333-0.64 0.810667-0.682667 0.768-0.725333 0.725333-0.725333 0.725333-0.768 0.682667-0.810667 0.64-0.853333 0.597333-0.853334 0.554667-0.853333 0.512-0.938667 0.469333-0.981333 0.426667-0.938667 0.384-0.981333 0.341333-1.024 0.256-1.024 0.256-1.066667 0.170667-1.066666 0.128-1.066667 0.085333-1.109333 0.042667-1.109334-0.042667-1.066666-0.085333-1.066667-0.128-1.066667-0.170667-1.024-0.256-1.024-0.256-0.981333-0.341333-0.981333-0.384-0.938667-0.426667-0.853333-0.469333-0.938667-0.512-0.853333-0.554667-0.853334-0.597333-0.810666-0.64-0.768-0.682667-0.768-0.725333-0.682667-0.725333-0.682667-0.768-0.64-0.810667-0.597333-0.853333-0.554667-0.853334-0.512-0.896-0.426666-0.896-0.426667-0.938666-0.426667-0.981334-0.341333-0.981333-0.256-1.024-0.256-1.024-0.170667-1.066667-0.170666-1.066666v-1.066667L597.333333 426.666667V341.333333l0.042667-1.109333 0.042667-1.066667 0.170666-1.066666 0.170667-1.066667 0.256-1.024 0.256-1.024 0.341333-0.981333 0.426667-0.981334 0.426667-0.938666 0.426666-0.896 0.512-0.896 0.554667-0.853334 0.597333-0.853333 0.64-0.810667 0.682667-0.768 0.682667-0.725333 0.768-0.725333 0.768-0.682667 0.853333-0.64 0.768-0.597333 0.896-0.554667 0.896-0.512 0.896-0.469333 0.938667-0.426667 0.981333-0.384 0.981333-0.341333 1.024-0.256 1.024-0.256 1.066667-0.170667 1.066667-0.128 1.066666-0.085333 1.109334-0.042667 1.109333 0.042667z m-213.333333 0l1.066666 0.085333 1.066667 0.128 1.066667 0.170667 1.024 0.256 1.024 0.256 0.981333 0.341333 0.938667 0.384 0.981333 0.426667 0.896 0.469333 0.896 0.512 0.853333 0.554667 0.853334 0.597333 0.853333 0.64 0.725333 0.682667 0.725334 0.725333 0.725333 0.725333 0.682667 0.768 0.64 0.810667 0.554666 0.853333 0.554667 0.853334 0.554667 0.896 0.469333 0.896 0.426667 0.938666 0.426666 0.981334 0.256 0.981333 0.298667 1.024 0.256 1.024 0.170667 1.066667 0.128 1.066666 0.085333 1.066667L426.666667 341.333333v86.442667l-0.128 1.066667-0.128 1.066666-0.170667 1.066667-0.256 1.024-0.298667 1.024-0.298666 0.981333-0.384 0.981334-0.426667 0.938666-0.426667 0.896-0.597333 0.896-0.554667 0.853334-0.554666 0.853333-0.64 0.810667-0.682667 0.768-0.725333 0.725333-0.725334 0.725333-0.768 0.682667-0.810666 0.64-0.853334 0.597333-0.853333 0.554667-0.853333 0.512-0.938667 0.469333-0.981333 0.426667-0.938667 0.384-0.981333 0.341333-1.024 0.256-1.024 0.256-1.066667 0.170667-1.066667 0.128-1.066666 0.085333-1.109334 0.042667-1.109333-0.042667-1.066667-0.085333-1.066666-0.128-1.066667-0.170667-1.024-0.256-1.024-0.256-0.981333-0.341333-0.981334-0.384-0.938666-0.426667-0.853334-0.469333-0.938666-0.512-0.853334-0.554667-0.853333-0.597333-0.810667-0.64-0.768-0.682667-0.768-0.725333-0.682666-0.725333-0.682667-0.768-0.64-0.810667-0.597333-0.853333-0.554667-0.853334-0.512-0.896-0.426667-0.896-0.426666-0.938666-0.426667-0.981334-0.341333-0.981333-0.256-1.024-0.256-1.024-0.170667-1.066667-0.170667-1.066666v-1.066667L384 426.666667V341.333333l0.042667-1.109333 0.042666-1.066667 0.170667-1.066666 0.170667-1.066667 0.256-1.024 0.256-1.024 0.341333-0.981333 0.426667-0.981334 0.426666-0.938666 0.426667-0.896 0.512-0.896 0.554667-0.853334 0.597333-0.853333 0.64-0.810667 0.682667-0.768 0.682666-0.725333 0.768-0.725333 0.768-0.682667 0.853334-0.64 0.768-0.597333 0.896-0.554667 0.896-0.512 0.896-0.469333 0.938666-0.426667 0.981334-0.384 0.981333-0.341333 1.024-0.256 1.024-0.256 1.066667-0.170667 1.066666-0.128 1.066667-0.085333L405.333333 320l1.109334 0.042667z" fill="#0400FF" p-id="13517"></path></svg>