<?xml version="1.0" standalone="no"?><!DOCTYPE svg PUBLIC "-//W3C//DTD SVG 1.1//EN" "http://www.w3.org/Graphics/SVG/1.1/DTD/svg11.dtd"><svg t="1661512040626" class="icon" viewBox="0 0 1024 1024" version="1.1" xmlns="http://www.w3.org/2000/svg" p-id="50700" xmlns:xlink="http://www.w3.org/1999/xlink" width="200" height="200"><path d="M804.571429 0H219.428571a73.142857 73.142857 0 0 0-73.142857 73.142857v877.714286a73.142857 73.142857 0 0 0 73.142857 73.142857h585.142858a73.142857 73.142857 0 0 0 73.142857-73.142857V73.142857a73.142857 73.142857 0 0 0-73.142857-73.142857z m-14.628572 936.228571H234.057143V87.771429h555.885714zM950.857143 182.857143h-73.142857v87.771428h58.514285v482.742858H877.714286v87.771428h73.142857a73.142857 73.142857 0 0 0 73.142857-73.142857v-512a73.142857 73.142857 0 0 0-73.142857-73.142857zM146.285714 270.628571V182.857143H73.142857a73.142857 73.142857 0 0 0-73.142857 73.142857v512a73.142857 73.142857 0 0 0 73.142857 73.142857h73.142857v-87.771428h-58.514285V270.628571z" p-id="50701"></path><path d="M658.285714 482.742857L438.857143 314.514286a36.571429 36.571429 0 0 0-58.514286 28.525714v337.92a36.571429 36.571429 0 0 0 58.514286 28.525714l219.428571-168.228571a37.302857 37.302857 0 0 0 0-58.514286z" p-id="50702"></path></svg>