<?xml version="1.0" standalone="no"?><!DOCTYPE svg PUBLIC "-//W3C//DTD SVG 1.1//EN" "http://www.w3.org/Graphics/SVG/1.1/DTD/svg11.dtd"><svg t="1661510830429" class="icon" viewBox="0 0 1024 1024" version="1.1" xmlns="http://www.w3.org/2000/svg" p-id="6213" xmlns:xlink="http://www.w3.org/1999/xlink" width="200" height="200"><path d="M512 0A512 512 0 1 1 0 512 512 512 0 0 1 512 0z" fill="#8967FC" p-id="6214"></path><path d="M833.901714 692.238629v-39.745829h-35.386514a103.365486 103.365486 0 0 0-17.890743-42.130286l24.649143-25.439085-23.844571-24.239543-25.044115 25.439085a99.752229 99.752229 0 0 0-41.735314-17.086171v-35.781486h-39.745829v35.371886a103.350857 103.350857 0 0 0-42.130285 17.890743l-25.439086-24.649143-24.239543 23.844571 25.439086 25.044115a99.752229 99.752229 0 0 0-17.086172 41.735314h-35.766857v39.745829h35.371886a103.336229 103.336229 0 0 0 17.890743 42.130285l-24.649143 25.439086 23.844571 24.239543 25.044115-25.439086a99.752229 99.752229 0 0 0 41.735314 17.086172v35.766857h39.745829v-35.371886a103.350857 103.350857 0 0 0 42.130285-17.890743l25.439086 24.649143 24.239543-23.844571-25.439086-25.044115a99.752229 99.752229 0 0 0 17.086172-41.735314z m-139.117714 32.182857a52.063086 52.063086 0 1 1 52.063086-52.063086 52.063086 52.063086 0 0 1-52.048457 52.077714z" fill="#FFFFFF" p-id="6215"></path><path d="M515.935086 175.542857a148.655543 148.655543 0 1 0 148.6848 148.655543A148.655543 148.655543 0 0 0 515.935086 175.542857zM197.968457 790.820571v20.670172h368.054857a218.609371 218.609371 0 0 1 49.737143-322.340572 317.966629 317.966629 0 0 0-417.792 301.6704z" fill="#FFFFFF" p-id="6216"></path></svg>