<?xml version="1.0" standalone="no"?><!DOCTYPE svg PUBLIC "-//W3C//DTD SVG 1.1//EN" "http://www.w3.org/Graphics/SVG/1.1/DTD/svg11.dtd"><svg t="1661512357416" class="icon" viewBox="0 0 1188 1024" version="1.1" xmlns="http://www.w3.org/2000/svg" p-id="75110" xmlns:xlink="http://www.w3.org/1999/xlink" width="232.03125" height="200"><path d="M1158.149682 1024h-107.449091a18.477918 18.477918 0 0 1 0-36.955835h119.505932a18.477918 18.477918 0 0 1 0 36.955835zM960.435963 1023.722831a18.477918 18.477918 0 1 1 0-36.955835h38.665043a18.477918 18.477918 0 0 1 0 36.955835zM875.252763 1023.676636c-207.368431 0-420.049262-3.095051-626.124239-6.143907l-120.106464-1.709208a18.477918 18.477918 0 1 1 0.508143-36.955835l120.106464 1.709208c217.115532 3.187441 441.576036 6.467271 659.292101 6.097712a18.477918 18.477918 0 0 1 0 36.955836zM80.147968 1015.407768h-0.554338c-15.79862-0.461948-35.800965-0.600532-61.023323-0.461948H18.477918a18.477918 18.477918 0 0 1 0-36.955835c25.638111 0 46.194794 0 62.316777 0.508143a18.477918 18.477918 0 0 1-0.554338 36.955835z" p-id="75111"></path><path d="M908.974963 901.676185a31.689629 31.689629 0 1 1 31.689629-31.689628 31.689629 31.689629 0 0 1-31.689629 31.689628z m0-58.713583a27.070149 27.070149 0 1 0 27.070149 27.023955 27.023955 27.023955 0 0 0-27.070149-27.023955z" fill="#FF6903" p-id="75112"></path><path d="M303.961745 140.10881a22.173501 22.173501 0 1 1 22.219696-22.173501 22.219696 22.219696 0 0 1-22.219696 22.173501z m0-39.727523a17.554022 17.554022 0 1 0 17.600216 17.554022 17.600217 17.600217 0 0 0-17.600216-17.554022z" fill="#7AF4EB" p-id="75113"></path><path d="M884.722696 98.256327l9.469933 19.217034 21.20341 3.048857-15.336671 14.967113 3.603193 21.111021-18.939865-9.978076-18.939866 9.978076 3.603194-21.111021-15.336671-14.967113 21.20341-3.048857 9.469933-19.217034zM164.638246 451.600307l-14.782334-7.760726-14.736139 7.760726 2.817882-16.399152-11.964452-11.687283 16.537737-2.355935 7.344972-14.967113L157.0623 421.157937l16.491541 2.355935L161.681779 435.201155zM149.855912 438.850544l8.638426 4.619479-1.432038-9.885686 6.975414-6.836829-9.608517-1.385844-4.342311-8.730816-4.296116 8.730816-9.654712 1.385844 6.975414 6.836829-1.616818 9.562322z" fill="#FF6903" p-id="75114"></path><path d="M1078.92561 331.078089h-4.619479v-4.619479a4.619479 4.619479 0 0 0-9.238959 0v4.619479h-4.619479a4.619479 4.619479 0 0 0 0 9.238959h4.619479v4.619479a4.619479 4.619479 0 1 0 9.238959 0v-4.619479h4.619479a4.619479 4.619479 0 0 0 0-9.238959zM59.4527 594.203636l-12.611179 9.146569 4.804259 14.828529h15.61384l4.850454-14.828529-12.657374-9.146569z" fill="#7AF4EB" p-id="75115"></path><path d="M1136.946271 524.033744h-17.600216a5.49718 5.49718 0 0 0-1.201065 0 3.834168 3.834168 0 0 0 1.062481-0.692922l12.426399-12.4264a4.157531 4.157531 0 0 0 0-5.866739l-1.940181-1.940181a4.157531 4.157531 0 0 0-5.866739 0l-12.4264 12.4264a7.853115 7.853115 0 0 0-0.692922 1.016285 3.510804 3.510804 0 0 0 0.277169-1.247259v-17.554022a4.157531 4.157531 0 0 0-4.157531-4.157531h-2.771688a4.157531 4.157531 0 0 0-4.157531 4.157531v17.554022a4.619479 4.619479 0 0 0 0 1.201064 3.048856 3.048856 0 0 0-0.692922-1.016285l-12.149231-11.964452a4.157531 4.157531 0 0 0-5.866739 0l-1.940181 1.893987a4.203726 4.203726 0 0 0 0 5.912933l12.426399 12.380205a3.834168 3.834168 0 0 0 1.062481 0.692922 3.972752 3.972752 0 0 0-1.24726 0h-17.600216a4.157531 4.157531 0 0 0-4.157532 4.157532v2.725493a4.203726 4.203726 0 0 0 4.157532 4.157531h17.600216a3.787973 3.787973 0 0 0 1.201065-0.277169 5.49718 5.49718 0 0 0-1.06248 0.739117l-12.4264 12.4264a4.157531 4.157531 0 0 0 0 5.866738l1.940181 1.893987a4.065142 4.065142 0 0 0 5.866739 0l12.4264-12.4264a3.834168 3.834168 0 0 0 0.646727-1.016285 5.912934 5.912934 0 0 0 0 1.247259v17.600217a4.111337 4.111337 0 0 0 4.157531 4.111337h2.725493a4.111337 4.111337 0 0 0 4.157532-4.111337v-17.600217a5.035233 5.035233 0 0 0 0-1.201064 3.834168 3.834168 0 0 0 0.692922 1.06248l12.426399 12.4264a4.157531 4.157531 0 0 0 5.866739 0l1.940181-1.940182a4.157531 4.157531 0 0 0 0-5.866739l-12.426399-12.426399a3.834168 3.834168 0 0 0-1.062481-0.692922 4.065142 4.065142 0 0 0 1.24726 0.277169h17.600216a4.203726 4.203726 0 0 0 4.157532-4.157532v-2.725493a4.157531 4.157531 0 0 0-4.61948-4.619479z m-23.651734 11.456309l-1.940181 1.940181a4.111337 4.111337 0 0 0-1.016286 4.111337 4.065142 4.065142 0 0 0-3.603194-2.263545H1104.055578a4.111337 4.111337 0 0 0-3.603194 2.21735 4.203726 4.203726 0 0 0-0.970091-4.157531l-1.940181-1.893987a4.018947 4.018947 0 0 0-4.111337-1.016285 4.111337 4.111337 0 0 0 2.217351-3.603194v-2.725493a4.065142 4.065142 0 0 0-2.171156-3.603194 4.065142 4.065142 0 0 0 4.111337-1.016286l1.940181-1.893986a4.157531 4.157531 0 0 0 1.016286-4.111337 4.111337 4.111337 0 0 0 3.603194 2.21735h2.725493a4.111337 4.111337 0 0 0 3.603193-2.21735 4.203726 4.203726 0 0 0 0.970091 4.157532l1.940182 1.940181a4.111337 4.111337 0 0 0 4.111336 0.970091 4.111337 4.111337 0 0 0-2.21735 3.649388v2.725493a4.065142 4.065142 0 0 0 2.171155 3.603194 4.018947 4.018947 0 0 0-4.157531 0.970091zM188.798123 748.0323a3.095051 3.095051 0 0 0 3.095052-3.095051v-8.315063a3.095051 3.095051 0 0 0-6.190103 0v8.315063a3.095051 3.095051 0 0 0 3.095051 3.095051z" fill="#EF3FE7" p-id="75116"></path><path d="M180.529255 749.602923a3.141246 3.141246 0 0 0 4.61948 0 3.048856 3.048856 0 0 0 0-4.34231l-5.866739-5.912934a3.095051 3.095051 0 1 0-4.388506 4.388505zM183.300943 753.483286a3.095051 3.095051 0 0 0-3.095051-3.095051h-8.315063a3.095051 3.095051 0 1 0 0 6.190102H180.159697a3.095051 3.095051 0 0 0 3.141246-3.095051zM184.779176 757.594623a3.141246 3.141246 0 0 0-4.619479 0l-5.866739 5.912933a3.048856 3.048856 0 0 0 0 4.342311 3.141246 3.141246 0 0 0 4.619479 0L184.779176 761.752154a3.141246 3.141246 0 0 0 0-4.157531zM188.751929 759.026661a3.095051 3.095051 0 0 0-3.095052 3.095051v8.315063a3.095051 3.095051 0 0 0 6.190103 0V762.214102a3.095051 3.095051 0 0 0-3.095051-3.187441zM197.020797 757.594623a3.095051 3.095051 0 1 0-4.388506 4.388505l6.005323 5.68196a3.095051 3.095051 0 0 0 4.61948-4.61948zM205.659223 750.43443h-8.315063a3.095051 3.095051 0 1 0 0 6.190102h8.315063a3.095051 3.095051 0 0 0 0-6.190102zM192.678486 749.649118a3.141246 3.141246 0 0 0 4.388505 0l5.866739-5.912934a3.095051 3.095051 0 0 0-4.619479-4.388505l-5.866739 5.912934a3.048856 3.048856 0 0 0 0.230974 4.388505z" fill="#EF3FE7" p-id="75117"></path><path d="M88.093472 298.32598m-7.945504 0a7.945505 7.945505 0 1 0 15.891009 0 7.945505 7.945505 0 1 0-15.891009 0Z" fill="#EF3FE7" p-id="75118"></path><path d="M701.190779 879.086931l10.994361-41.113367a37.879731 37.879731 0 0 1 63.333063-16.953489l30.072811 30.072811a37.879731 37.879731 0 0 1-16.95349 63.564036l-41.113366 10.994361a37.833536 37.833536 0 0 1-46.333379-46.564352z" fill="#FF9F60" p-id="75119"></path><path d="M740.641133 928.238192a56.403844 56.403844 0 0 1-54.140298-70.955204l10.994361-41.113366a56.311454 56.311454 0 0 1 94.237379-25.222358l30.119006 30.072811a56.357649 56.357649 0 0 1-25.268552 94.23738l-41.113367 10.994361a56.17287 56.17287 0 0 1-14.828529 1.986376z m-18.477917-61.392881a19.309424 19.309424 0 0 0 23.697929 23.697929l41.113367-10.994361a19.355619 19.355619 0 0 0 8.684621-32.336356l-30.072811-30.119006a19.401814 19.401814 0 0 0-32.336356 8.684622z" p-id="75120"></path><path d="M420.926964 879.086931l11.040555-41.113367a37.833536 37.833536 0 0 1 63.286868-16.953489l30.072811 30.072811a37.879731 37.879731 0 0 1-16.953489 63.564036l-41.067172 10.994361a37.833536 37.833536 0 0 1-46.379573-46.564352z" fill="#FF9F60" p-id="75121"></path><path d="M460.423512 928.238192a56.403844 56.403844 0 0 1-54.186493-70.955204l11.040556-41.113366a56.311454 56.311454 0 0 1 94.23738-25.222358l30.072811 30.072811a56.311454 56.311454 0 0 1-25.268553 94.23738l-41.067172 10.994361a56.681012 56.681012 0 0 1-14.828529 1.986376z m-18.477917-61.392881a19.355619 19.355619 0 0 0 23.744124 23.697929l41.067172-10.994361a19.309424 19.309424 0 0 0 8.684621-32.336356l-30.072811-30.119006a19.355619 19.355619 0 0 0-32.336356 8.684622zM672.041864 242.522669a18.477918 18.477918 0 0 1-14.828529-29.518474l152.442821-205.520638a18.477918 18.477918 0 0 1 29.657057 21.988722l-152.44282 205.566833a18.477918 18.477918 0 0 1-14.828529 7.483557zM566.671539 242.522669a18.477918 18.477918 0 0 1-16.029594-9.238959L438.850544 40.050886a18.477918 18.477918 0 1 1 31.966797-18.477917l111.837597 193.232823a18.477918 18.477918 0 0 1-6.74444 25.407137 18.154554 18.154554 0 0 1-9.238959 2.30974z" p-id="75122"></path><path d="M269.038481 241.321604m116.087517 0l544.359453 0q116.087517 0 116.087518 116.087518l0 333.295439q0 116.087517-116.087518 116.087517l-544.359453 0q-116.087517 0-116.087517-116.087517l0-333.295439q0-116.087517 116.087517-116.087518Z" fill="#FF9F60" p-id="75123"></path><path d="M992.033203 629.773627a18.477918 18.477918 0 0 1-18.477918-18.477917V342.118645a97.748184 97.748184 0 0 0-97.6096-97.6096H331.586232a97.748184 97.748184 0 0 0-97.6096 97.6096 18.477918 18.477918 0 0 1-36.955835 0 134.750214 134.750214 0 0 1 134.565435-134.565435h544.359453a134.750214 134.750214 0 0 1 134.565435 134.565435v269.177065a18.477918 18.477918 0 0 1-18.477917 18.477917z" p-id="75124"></path><path d="M792.93364 503.061307a9.238959 9.238959 0 0 1-6.005323-2.21735l-97.009068-82.411512a9.238959 9.238959 0 1 1 11.964452-13.858439l97.009068 82.411513a9.238959 9.238959 0 0 1-5.959129 16.260568zM474.281951 503.061307a9.238959 9.238959 0 0 1-6.005324-16.260567l97.009068-82.411513a9.238959 9.238959 0 1 1 11.964452 13.858438l-97.009068 82.411513a9.238959 9.238959 0 0 1-5.959128 2.402129zM644.83313 643.123923h-0.646727c-20.14093-0.554338-34.599901-28.455993-33.583615-64.672712a9.238959 9.238959 0 0 1 9.238959-9.238959 9.238959 9.238959 0 0 1 9.238959 9.516128c-0.785311 27.301123 8.915595 45.686651 15.61384 45.871431 2.956467 0 7.160193-4.018947 10.440023-10.486219a84.305499 84.305499 0 0 0 7.714531-34.461316 9.238959 9.238959 0 0 1 9.238959-9.007985 9.238959 9.238959 0 0 1 9.238959 9.238959 101.628547 101.628547 0 0 1-9.747102 42.360626c-6.790635 13.627464-16.260568 20.880047-26.746786 20.880047z" p-id="75125"></path><path d="M593.233545 638.27347c-20.418099 0-35.800965-27.485902-35.800965-63.933595a9.238959 9.238959 0 0 1 18.477918 0c0 27.347318 10.440023 45.455677 17.323047 45.455677s17.323048-18.108359 17.323048-45.455677a9.238959 9.238959 0 0 1 18.477918 0c0 36.447693-15.382866 63.933595-35.800966 63.933595z" p-id="75126"></path></svg>