<?xml version="1.0" standalone="no"?><!DOCTYPE svg PUBLIC "-//W3C//DTD SVG 1.1//EN" "http://www.w3.org/Graphics/SVG/1.1/DTD/svg11.dtd"><svg t="1661512257727" class="icon" viewBox="0 0 1574 1024" version="1.1" xmlns="http://www.w3.org/2000/svg" p-id="64161" xmlns:xlink="http://www.w3.org/1999/xlink" width="307.421875" height="200"><path d="M125.678321 693.218748H21.943533a21.962466 21.962466 0 0 1 0-43.906h103.734788a21.962466 21.962466 0 0 1 0 43.906z" fill="#50FBFF" p-id="64162"></path><path d="M73.820394 745.076676a21.943533 21.943533 0 0 1-21.962467-21.943534v-103.734788a21.962466 21.962466 0 1 1 43.906 0v103.734788a21.9246 21.9246 0 0 1-21.943533 21.943534z" fill="#50FBFF" p-id="64163"></path><path d="M1435.190386 853.22289m-39.078044 0a39.078044 39.078044 0 1 0 78.156087 0 39.078044 39.078044 0 1 0-78.156087 0Z" fill="#FE7E00" p-id="64164"></path><path d="M1331.550263 1000.769012m-23.230988 0a23.230988 23.230988 0 1 0 46.461977 0 23.230988 23.230988 0 1 0-46.461977 0Z" fill="#FE7E00" p-id="64165"></path><path d="M1488.846963 595.826569m-85.426421 0a85.426421 85.426421 0 1 0 170.852842 0 85.426421 85.426421 0 1 0-170.852842 0Z" fill="#FEDF1D" p-id="64166"></path><path d="M1166.926431 606.618471l205.954922 119.013848a26.127762 26.127762 0 0 0 39.191643-22.719792V223.032634a26.127762 26.127762 0 0 0-39.191643-22.719793l-210.915411 121.77809" fill="#FC00FC" p-id="64167"></path><path d="M1410.823408 222.559305a26.127762 26.127762 0 0 0-39.305242-22.378996l-48.014496 28.09681v310.503837a25.824831 25.824831 0 0 1-38.737247 22.378996l-119.449311-69.106037 2.688509 115.492281 206.674383 117.70746a26.127762 26.127762 0 0 0 39.040177-22.852325z" fill="#8304AD" p-id="64168"></path><path d="M1385.926301 772.965221a70.052695 70.052695 0 0 1-34.950615-9.46658l-206.011722-118.862383a43.906 43.906 0 1 1 43.906-76.035574L1368.18593 672.127207V253.817953l-184.276454 106.404364a43.906 43.906 0 0 1-43.887067-76.054507l210.839678-121.77809a70.052695 70.052695 0 0 1 105.041176 60.586114v479.936693a70.052695 70.052695 0 0 1-70.052694 70.052694z" fill="#27233A" p-id="64169"></path><path d="M302.930572 155.687381h851.481039a7.573264 7.573264 0 0 1 7.573265 7.573264v711.886845a1.628252 1.628252 0 0 1-1.628252 1.628252H302.930572a1.628252 1.628252 0 0 1-1.628252-1.628252V157.315633a1.628252 1.628252 0 0 1 1.628252-1.628252z" fill="#FEDF1D" p-id="64170"></path><path d="M1031.327133 59.753055a155.44125 155.44125 0 0 1 5.244486 39.759638v548.891264c0 79.519275-59.222927 143.892022-132.267061 143.892022H220.987852a123.425275 123.425275 0 0 1-66.398594-19.576889c15.903855 60.093852 66.682592 104.132384 127.022575 104.132385h683.316705c73.044134 0 132.267061-64.372747 132.267062-143.892022V184.143922c-0.037866-53.164315-26.544291-99.455894-65.868467-124.390867z" fill="#FC8704" p-id="64171"></path><path d="M1385.926301 772.965221a70.052695 70.052695 0 0 1-34.950615-9.46658l-206.011722-118.862383a43.906 43.906 0 1 1 43.906-76.035574L1368.18593 672.127207V253.817953l-184.276454 106.404364a43.906 43.906 0 0 1-43.887067-76.054507l210.839678-121.77809a70.052695 70.052695 0 0 1 105.041176 60.586114v479.936693a70.052695 70.052695 0 0 1-70.052694 70.052694zM188.801479 506.859647a43.887067 43.887067 0 0 1-43.887067-43.887067v-43.906a43.906 43.906 0 0 1 87.793067 0v43.906a43.887067 43.887067 0 0 1-43.906 43.887067z" fill="#27233A" p-id="64172"></path><path d="M960.536045 925.94516H364.444412A219.738264 219.738264 0 0 1 144.914412 706.453028a43.906 43.906 0 0 1 87.793067 0 131.831598 131.831598 0 0 0 131.736933 131.699066h596.091633a131.831598 131.831598 0 0 0 131.680133-131.699066V219.4732a131.831598 131.831598 0 0 0-131.680133-131.680134H364.444412a131.831598 131.831598 0 0 0-131.680134 131.680134v24.007247a43.906 43.906 0 1 1-87.793066 0v-24.007247A219.738264 219.738264 0 0 1 364.444412 0h596.091633a219.738264 219.738264 0 0 1 219.4732 219.4732v486.979828a219.738264 219.738264 0 0 1-219.4732 219.492132z" fill="#27233A" p-id="64173"></path><path d="M434.856836 304.994287m-60.945844 0a60.945845 60.945845 0 1 0 121.891689 0 60.945845 60.945845 0 1 0-121.891689 0Z" fill="#FFFFFF" p-id="64174"></path></svg>