<?xml version="1.0" standalone="no"?><!DOCTYPE svg PUBLIC "-//W3C//DTD SVG 1.1//EN" "http://www.w3.org/Graphics/SVG/1.1/DTD/svg11.dtd"><svg t="1661512468228" class="icon" viewBox="0 0 1024 1024" version="1.1" xmlns="http://www.w3.org/2000/svg" p-id="82100" xmlns:xlink="http://www.w3.org/1999/xlink" width="200" height="200"><path d="M230.4 409.6h588.8c43.52 0 76.8 33.28 76.8 76.8v358.4c0 43.52-33.28 76.8-76.8 76.8H256c-43.52 0-76.8-33.28-76.8-76.8V460.8c0-28.16 23.04-51.2 51.2-51.2z" fill="#C5DDFB" p-id="82101"></path><path d="M307.2 588.8h51.2v51.2h-51.2v-51.2z m409.6 0h51.2v51.2h-51.2v-51.2z m-409.6 102.4h51.2v51.2h-51.2v-51.2z m409.6 0h51.2v51.2h-51.2v-51.2z m-107.52 0l-81.92 53.76c-12.8 7.68-28.16 5.12-35.84-7.68-2.56-5.12-5.12-10.24-5.12-15.36V614.4c0-15.36 10.24-25.6 25.6-25.6 5.12 0 10.24 2.56 15.36 5.12l81.92 53.76c12.8 7.68 15.36 23.04 7.68 35.84l-7.68 7.68zM176.64 314.88L793.6 148.48c12.8-2.56 28.16 5.12 30.72 17.92l12.8 48.64c2.56 12.8-5.12 28.16-17.92 30.72L202.24 414.72c-12.8 2.56-28.16-5.12-30.72-17.92l-12.8-51.2c-2.56-12.8 5.12-28.16 17.92-30.72z" fill="#2589FF" p-id="82102"></path></svg>