<?xml version="1.0" standalone="no"?><!DOCTYPE svg PUBLIC "-//W3C//DTD SVG 1.1//EN" "http://www.w3.org/Graphics/SVG/1.1/DTD/svg11.dtd"><svg t="1661511145311" class="icon" viewBox="0 0 1024 1024" version="1.1" xmlns="http://www.w3.org/2000/svg" p-id="14485" xmlns:xlink="http://www.w3.org/1999/xlink" width="200" height="200"><path d="M134.656 224.597333a126.293333 126.293333 0 1 0 126.122667-126.293333 126.122667 126.122667 0 0 0-126.122667 126.293333zM431.786667 160.085333A63.658667 63.658667 0 1 0 494.933333 96.597333a63.658667 63.658667 0 0 0-63.146666 63.488zM614.4 176.298667a63.658667 63.658667 0 1 0 62.805333-63.658667A63.317333 63.317333 0 0 0 614.4 176.298667zM762.197333 257.706667a63.658667 63.658667 0 1 0 63.658667-63.488 63.658667 63.658667 0 0 0-63.658667 63.488zM454.314667 308.736c-193.536 77.141333-143.36 247.125333-12.629334 292.010667 85.333333 28.672 43.861333 127.146667 34.986667 182.613333-17.92 109.226667 77.824 135.168 172.714667 119.466667s224.768-238.933333 138.922666-452.266667c-90.453333-223.232-333.994667-141.824-333.994666-141.824z" fill="#FFBE61" p-id="14486"></path></svg>